<svg width="345" height="279" viewBox="0 0 345 279" fill="none" xmlns="http://www.w3.org/2000/svg">
<path opacity="0.34" d="M309.207 278.769H30.3125C26.7542 278.769 23.8716 275.886 23.8716 272.328C23.8716 268.769 26.7542 265.887 30.3125 265.887H309.207C312.766 265.887 315.648 268.769 315.648 272.328C315.648 275.886 312.766 278.769 309.207 278.769Z" fill="black"/>
<path d="M329.701 193.911H272.994C267.229 193.911 262.545 189.227 262.545 183.461C262.545 177.696 267.229 173.012 272.994 173.012H304.658C311.505 173.012 317.045 167.472 317.045 160.626C317.045 153.779 311.505 148.239 304.658 148.239H276.508C268.806 148.239 262.545 141.979 262.545 134.277C262.545 126.574 268.806 120.314 276.508 120.314H307.811C314.658 120.314 320.243 114.729 320.243 107.882C320.243 101.036 314.658 95.451 307.811 95.451H262.59H251.78C244.934 95.451 239.349 89.8659 239.349 83.0197C239.349 76.1734 244.934 70.5883 251.78 70.5883H264.031C270.878 70.5883 276.463 65.0032 276.463 58.1569C276.463 51.3107 270.878 45.7256 264.031 45.7256H257.05H255.879H181.876H179.354H102.063H84.3621C77.5158 45.7256 71.9307 51.3107 71.9307 58.1569C71.9307 65.0032 77.5158 70.5883 84.3621 70.5883H89.6319C96.4782 70.5883 102.063 76.1734 102.063 83.0197C102.063 89.8659 96.4782 95.451 89.6319 95.451H42.2036C36.9338 95.451 32.6548 99.7299 32.6548 105C32.6548 110.27 36.9338 114.548 42.2036 114.548H92.1542C97.6492 114.548 102.108 119.008 102.108 124.503C102.108 129.998 97.6492 134.457 92.1542 134.457H12.4314C5.58511 134.457 0 140.042 0 146.888C0 153.734 5.58511 159.319 12.4314 159.319H89.6319C96.4782 159.319 102.063 164.904 102.063 171.751C102.063 178.597 96.4782 184.182 89.6319 184.182H43.0143C32.0243 184.182 23.1061 193.1 23.1061 204.09C23.1061 215.08 32.0243 223.998 43.0143 223.998H102.063H128.277H143.006H262.59H329.701C337.989 223.998 344.7 217.287 344.7 209C344.7 200.622 337.989 193.911 329.701 193.911Z" fill="#E48633"/>
<path d="M224.489 272.339H232.596V150.367H224.489V272.339Z" fill="#2F262D"/>
<path d="M193.632 174.949C192.326 172.021 193.632 168.553 196.605 167.202C197.371 166.886 198.181 166.706 198.992 166.706C201.289 166.706 203.406 168.057 204.352 170.174L233.178 235.124L222.459 239.898L193.632 174.949Z" fill="#FC9F6F"/>
<path d="M145.44 272.339H153.547V150.367H145.44V272.339Z" fill="#2F262D"/>
<path d="M182.957 158.328C155.077 158.328 132.511 137.069 132.511 110.9C132.511 104.143 134.042 97.7025 136.745 91.8472C118.999 99.1889 106.612 115.899 106.612 135.267C106.612 161.481 129.178 182.695 157.058 182.695C177.732 182.695 195.479 171.03 203.271 154.319C197.01 156.887 190.164 158.328 182.957 158.328Z" fill="#F2F2F2"/>
<path d="M155.032 171.165C170.28 171.165 182.642 159.812 182.642 145.806C182.642 131.802 170.28 120.448 155.032 120.448C139.783 120.448 127.421 131.802 127.421 145.806C127.421 159.812 139.783 171.165 155.032 171.165Z" fill="#3B323A"/>
<path d="M105.306 150.356H43.5548C41.2126 150.356 39.2759 148.419 39.2759 146.077V142.024C39.2759 139.681 41.2126 137.745 43.5548 137.745H105.306C107.648 137.745 109.585 139.681 109.585 142.024V146.077C109.585 148.419 107.648 150.356 105.306 150.356Z" fill="#A7A1A1"/>
<path d="M178.949 126.485C170.301 126.485 163.274 119.458 163.274 110.81V95.1361C163.274 89.1456 158.455 84.3262 152.464 84.3262V110.81C152.464 125.449 164.31 137.295 178.949 137.295H200.884V126.485H178.949Z" fill="#EF9067"/>
<path d="M182.507 43.7438C180.886 64.2375 162.869 86.9383 146.024 84.0556C129.899 81.3081 118.819 55.8599 124.269 38.0236C127.647 27.0335 136.925 20.1422 144.402 14.6022C152.149 8.83689 157.374 4.96335 163.32 5.90922C175.12 7.71086 183.813 27.4389 182.507 43.7438Z" fill="#603936"/>
<path d="M159.761 102.072C159.446 101.712 156.924 98.784 156.473 98.3787C155.302 93.5593 152.915 88.2444 153.41 82.0287C150.032 79.5515 144.447 76.3986 138.096 76.849C136.205 76.9841 134.223 77.4345 133.232 77.6597C127.737 78.9209 124.269 80.9477 123.143 81.6234C121.611 82.5692 120.846 83.0196 119.945 83.9205C117.513 86.4428 116.927 89.5056 116.612 91.3072C113.909 106.982 116.026 122.025 116.296 123.331C116.792 125.719 117.468 127.836 117.468 127.836C118.594 131.394 119.945 133.601 120.305 134.592C122.107 139.456 126.206 149.681 130.529 157.473C133.682 157.968 140.844 161.121 145.573 159.5C152.78 157.022 167.643 151.482 172.958 150.356C166.337 142.924 160.257 134.637 158.68 124.548C158.275 121.935 157.915 119.368 157.644 116.846C158.275 116.53 162.103 114.593 162.869 110.72C163.68 106.531 160.392 102.793 159.761 102.072Z" fill="#F05364"/>
<path d="M143.496 92.5645C147.425 91.4687 149.576 86.8704 148.3 82.2942C147.023 77.7176 142.803 74.8962 138.874 75.9921C134.945 77.0875 132.794 81.6857 134.07 86.2624C135.346 90.8385 139.566 93.6604 143.496 92.5645Z" fill="#EF9067"/>
<path d="M140.033 74.0564C142.51 79.9117 146.609 81.9386 149.221 83.47C154.311 86.4427 163.859 86.1724 163.859 86.1724C164.175 84.1005 164.49 82.2989 166.112 78.8758C168.454 73.7861 170.616 72.57 173.633 67.9758C178.138 61.0395 180.39 52.6618 178.948 51.8511C177.912 51.2205 175.075 54.4635 173.228 56.3552C167.958 61.7601 156.157 69.7774 140.033 74.0564Z" fill="#603936"/>
<path d="M139.853 86.9383H137.961C133.817 86.9383 130.484 83.6053 130.484 79.4615V51.0405H145.438V81.3082C145.438 84.416 142.916 86.9383 139.853 86.9383Z" fill="#EF9067"/>
<path d="M55.6631 272.339H63.7705V150.367H55.6631V272.339Z" fill="#2F262D"/>
<path d="M105.529 272.339H113.636V150.367H105.529V272.339Z" fill="#494149"/>
<path d="M273.287 272.339H281.395V150.367H273.287V272.339Z" fill="#494149"/>
<path opacity="0.71" d="M130.484 54.0584C131.475 62.6613 137.421 69.7778 145.438 72.4803V49.3291H130.484V54.0584Z" fill="#D36B46"/>
<path d="M152.464 71.3536C141.474 71.3536 132.601 62.4805 132.601 51.4905V27.2583C132.601 26.2224 133.412 25.4116 134.448 25.4116H162.689C168.003 25.4116 172.327 29.7356 172.327 35.0504V51.4905C172.327 62.4805 163.454 71.3536 152.464 71.3536Z" fill="#FC9F6F"/>
<path d="M172.327 48.6534C172.102 49.1939 171.561 49.5542 170.976 49.5542H162.238C161.427 49.5542 160.752 48.8786 160.752 48.0679V43.1584C160.752 42.3476 161.427 41.672 162.238 41.672H170.976C171.561 41.672 172.102 42.0324 172.327 42.5729V40.6811C171.922 40.4559 171.471 40.3208 170.976 40.3208H162.238C160.662 40.3208 159.4 41.5819 159.4 43.1584V48.0679C159.4 49.6443 160.662 50.9055 162.238 50.9055H170.976C171.471 50.9055 171.922 50.7704 172.327 50.5452V48.6534Z" fill="#DD9883"/>
<path d="M154.761 50.1841H146.023C144.807 50.1841 143.861 49.1932 143.861 48.0222V43.1127C143.861 41.8966 144.852 40.9507 146.023 40.9507H154.761C155.977 40.9507 156.923 41.9416 156.923 43.1127V48.0222C156.923 49.2383 155.932 50.1841 154.761 50.1841Z" stroke="#DD9883" stroke-width="3" stroke-miterlimit="10" stroke-linecap="round" stroke-linejoin="round"/>
<path opacity="0.6" d="M144.942 55.2737V31.0415C144.942 30.0056 145.753 29.1948 146.789 29.1948L163.094 23.4746C161.337 21.1775 165.796 25.4564 162.689 25.4564H134.448C133.412 25.4564 132.601 26.2672 132.601 27.3031V51.5352C132.601 62.5253 141.474 71.3984 152.464 71.3984C152.689 71.3984 152.915 71.3984 153.185 71.3984C148.185 67.7501 144.942 61.8947 144.942 55.2737Z" fill="#EF9067"/>
<path d="M170.976 49.2832H162.238C161.022 49.2832 160.076 48.2923 160.076 47.1213V42.2118C160.076 40.9957 161.067 40.0498 162.238 40.0498H170.976C172.192 40.0498 173.138 41.0407 173.138 42.2118V47.1213C173.138 48.3374 172.147 49.2832 170.976 49.2832Z" stroke="#F6CDF7" stroke-width="3" stroke-miterlimit="10" stroke-linecap="round" stroke-linejoin="round"/>
<path d="M157.644 61.3549C155.122 61.3549 153.095 59.3281 153.095 56.8508V54.7339H162.103V56.8508C162.103 59.3281 160.121 61.3549 157.644 61.3549Z" fill="#FCFAFA"/>
<path d="M149.492 44.1035H153.545" stroke="#161515" stroke-width="3" stroke-miterlimit="10" stroke-linecap="round" stroke-linejoin="round"/>
<path d="M164.806 44.1035H168.859" stroke="#161515" stroke-width="3" stroke-miterlimit="10" stroke-linecap="round" stroke-linejoin="round"/>
<path d="M154.761 49.2832H146.023C144.807 49.2832 143.861 48.2923 143.861 47.1213V42.2118C143.861 40.9957 144.852 40.0498 146.023 40.0498H154.761C155.977 40.0498 156.923 41.0407 156.923 42.2118V47.1213C156.923 48.3374 155.932 49.2832 154.761 49.2832Z" stroke="#F6CDF7" stroke-width="3" stroke-miterlimit="10" stroke-linecap="round" stroke-linejoin="round"/>
<path d="M160.797 7.17024C155.347 0.143817 146.069 0.278942 144.357 0.0987776C142.826 -0.216511 134.403 0.188861 128.232 1.81034C113.999 5.5938 104.09 18.4756 104.09 33.2491V52.1664C104.09 64.868 113.459 80.2721 125.485 84.2807C132.151 86.5328 139.538 88.2443 141.294 87.9741C132.376 71.444 133.592 61.6701 136.115 55.9498C142.15 41.9871 159.851 42.4825 164.22 26.9433C164.31 26.4929 167.058 15.2776 160.797 7.17024Z" fill="#754743"/>
<path d="M216.378 137.159C216.828 135.988 217.053 134.727 217.053 133.421C217.053 127.43 212.234 122.611 206.243 122.611C200.253 122.611 195.434 127.43 195.434 133.421C195.434 134.727 195.659 135.988 196.109 137.159H216.378Z" fill="#EF9067"/>
<path d="M181.696 137.745C180.795 133.601 175.796 130.448 169.715 130.448C163.68 130.448 158.635 133.601 157.734 137.745H181.696Z" fill="#F4EFF0"/>
<path d="M122.377 106.216C126.008 106.216 128.953 101.598 128.953 95.9013C128.953 90.205 126.008 85.5869 122.377 85.5869C118.745 85.5869 115.801 90.205 115.801 95.9013C115.801 101.598 118.745 106.216 122.377 106.216Z" fill="#EF9067"/>
<path d="M142.285 126.845C133.637 126.845 126.611 119.818 126.611 111.17V92.028C126.611 89.0553 124.178 86.623 121.206 86.623C118.233 86.623 115.801 89.0553 115.801 92.028V111.17C115.801 125.809 127.647 137.655 142.285 137.655H164.22V126.845H153.23H142.285Z" fill="#FC9F6F"/>
<path d="M233.358 137.744H182.912C182.282 137.744 181.741 137.204 181.741 136.573C181.741 135.943 182.282 135.402 182.912 135.402H233.403C234.034 135.402 234.574 135.943 234.574 136.573C234.574 137.204 234.034 137.744 233.358 137.744Z" fill="white"/>
<path d="M233.358 136.573H182.912C182.461 136.573 182.101 136.348 181.876 135.988C181.786 136.168 181.696 136.348 181.696 136.573C181.696 137.204 182.236 137.744 182.867 137.744H233.358C233.989 137.744 234.529 137.204 234.529 136.573C234.529 136.348 234.484 136.168 234.349 135.988C234.169 136.303 233.808 136.573 233.358 136.573Z" fill="#F4EFF0"/>
<path d="M192.686 137.744H182.912C182.282 137.744 181.741 137.204 181.741 136.573C181.741 135.943 182.282 135.402 182.912 135.402H192.686C193.317 135.402 193.857 135.943 193.857 136.573C193.857 137.204 193.362 137.744 192.686 137.744Z" fill="#F4EFF0"/>
<path d="M229.8 135.402H226.106V134.547C226.106 134.096 226.467 133.691 226.962 133.691H228.944C229.394 133.691 229.8 134.051 229.8 134.547V135.402Z" fill="#F4EFF0"/>
<path d="M225.296 135.402H221.603V134.547C221.603 134.096 221.963 133.691 222.458 133.691H224.44C224.891 133.691 225.296 134.051 225.296 134.547V135.402Z" fill="#F4EFF0"/>
<path d="M220.792 135.402H217.099V134.547C217.099 134.096 217.459 133.691 217.954 133.691H219.936C220.387 133.691 220.792 134.051 220.792 134.547V135.402Z" fill="#F4EFF0"/>
<path d="M216.288 135.402H212.594V134.547C212.594 134.096 212.955 133.691 213.45 133.691H215.432C215.882 133.691 216.288 134.051 216.288 134.547V135.402Z" fill="#F4EFF0"/>
<path d="M211.784 135.402H208.09V134.547C208.09 134.096 208.451 133.691 208.946 133.691H210.928C211.378 133.691 211.784 134.051 211.784 134.547V135.402Z" fill="#F4EFF0"/>
<path d="M207.279 135.402H203.586V134.547C203.586 134.096 203.946 133.691 204.442 133.691H206.424C206.874 133.691 207.279 134.051 207.279 134.547V135.402Z" fill="#F4EFF0"/>
<path d="M202.775 135.402H199.082V134.547C199.082 134.096 199.442 133.691 199.938 133.691H201.92C202.37 133.691 202.775 134.051 202.775 134.547V135.402Z" fill="#F4EFF0"/>
<path d="M198.271 135.402H194.578V134.547C194.578 134.096 194.938 133.691 195.433 133.691H197.415C197.866 133.691 198.271 134.051 198.271 134.547V135.402Z" fill="#F4EFF0"/>
<path d="M193.767 135.402H190.074V134.547C190.074 134.096 190.434 133.691 190.93 133.691H192.911C193.362 133.691 193.767 134.051 193.767 134.547V135.402Z" fill="#F4EFF0"/>
<path d="M189.263 135.402H185.57V134.547C185.57 134.096 185.93 133.691 186.426 133.691H188.407C188.858 133.691 189.263 134.051 189.263 134.547V135.402Z" fill="#F4EFF0"/>
<path d="M182.912 137.745H192.686C193.316 137.745 193.857 137.204 193.857 136.574H181.696C181.696 137.204 182.236 137.745 182.912 137.745Z" fill="#E2E2E2"/>
<path d="M187.281 174.318H151.654L151.383 155.401H195.524C198.496 155.401 200.884 157.788 200.884 160.761C200.838 168.283 194.758 174.318 187.281 174.318Z" fill="#352934"/>
<path d="M158.635 242.916L180.48 169.048C181.201 166.571 183.498 164.859 186.11 164.859C186.651 164.859 187.236 164.949 187.777 165.085C190.885 165.985 192.641 169.273 191.741 172.381L169.896 246.249L158.635 242.916Z" fill="#EF9067"/>
<path d="M176.787 236.88L158.635 231.52L181.516 154.184C183.003 149.185 188.272 146.302 193.272 147.789C198.271 149.275 201.154 154.545 199.668 159.544L176.787 236.88Z" fill="#352934"/>
<path d="M266.959 115.855H191.29C189.804 115.855 188.587 114.639 188.587 113.152L197.956 59.1029C197.956 57.6165 199.172 56.4004 200.658 56.4004H276.328C277.814 56.4004 279.03 57.6165 279.03 59.1029L269.661 113.152C269.661 114.639 268.49 115.855 266.959 115.855Z" fill="#CECECE"/>
<path d="M271.463 115.855H195.794C194.308 115.855 193.092 114.639 193.092 113.152L202.46 59.1029C202.46 57.6165 203.676 56.4004 205.163 56.4004H280.832C282.318 56.4004 283.534 57.6165 283.534 59.1029L274.166 113.152C274.166 114.639 272.995 115.855 271.463 115.855Z" fill="#F4EFF0"/>
<path d="M248.357 134.817L242.141 103.333H231.061C229.71 103.333 228.674 104.594 228.944 105.9L234.439 133.691C234.664 134.727 233.854 135.673 232.818 135.673H226.061C224.845 135.673 223.899 136.663 223.899 137.835H235.25H245.789C247.456 137.88 248.672 136.393 248.357 134.817Z" fill="#CECECE"/>
<path d="M248.942 137.88H237.457L230.791 104.099C230.701 103.694 231.016 103.378 231.421 103.378H244.348L250.744 135.763C250.924 136.844 250.068 137.88 248.942 137.88Z" fill="#F4EFF0"/>
<path d="M235.295 137.88H237.457L236.872 134.817H234.665L235.295 137.88Z" fill="#F4EFF0"/>
<path d="M235.295 137.88C236.421 137.88 237.277 136.844 237.052 135.718L236.872 134.817H234.439L235.295 137.88Z" fill="#CECECE"/>
<path d="M245.204 87.2082C242.772 87.2082 240.79 85.2264 240.79 82.7942C240.79 81.9834 241.015 81.2628 241.376 80.6322C240.745 80.452 240.069 80.3169 239.349 80.3169C235.52 80.3169 232.458 83.4247 232.458 87.2082C232.458 90.9917 235.565 94.0995 239.349 94.0995C243.177 94.0995 246.24 90.9917 246.24 87.2082C246.24 87.1632 246.24 87.1181 246.24 87.0731C245.88 87.1632 245.565 87.2082 245.204 87.2082Z" fill="#CECECE"/>
<path d="M192.821 164.003L155.707 173.777C145.618 176.435 135.394 169.273 130.484 157.427L188.002 145.672C193.047 144.365 198.226 147.383 199.532 152.428C200.884 157.517 197.866 162.697 192.821 164.003Z" fill="#3B323A"/>
<path d="M230.161 220.305L212.865 228.007L182.552 159.815C180.435 155.04 182.597 149.455 187.371 147.338C192.146 145.221 197.731 147.383 199.848 152.158L230.161 220.305Z" fill="#3B323A"/>
<path d="M101.568 150.356H294.434C296.776 150.356 298.713 148.419 298.713 146.077V142.024C298.713 139.681 296.776 137.745 294.434 137.745H101.568C99.2258 137.745 97.2891 139.681 97.2891 142.024V146.077C97.2891 148.419 99.1808 150.356 101.568 150.356Z" fill="#F2F2F2"/>
<path d="M258.356 242.24L220.026 249.222C218.54 249.492 217.143 248.546 216.828 247.15L216.558 245.934C215.792 242.421 218.044 238.862 221.738 237.916L249.663 230.845C255.068 229.494 260.518 231.971 261.509 236.52L261.869 238.142C262.275 239.988 260.698 241.835 258.356 242.24Z" fill="#F1662A"/>
<path d="M259.843 238.772L217.009 246.564C216.918 246.564 216.828 246.609 216.738 246.609L216.873 247.149C217.189 248.591 218.585 249.491 220.071 249.221L258.401 242.24C260.743 241.834 262.365 239.988 261.96 238.141L261.915 238.006C261.284 238.366 260.608 238.636 259.843 238.772Z" fill="#FFFDFD"/>
<path d="M179.219 266.337L147.194 244.177C145.978 243.321 145.618 241.654 146.429 240.438L147.104 239.357C149.041 236.34 153.185 235.394 156.428 237.376L181.155 252.149C185.975 255.032 188.047 260.662 185.524 264.535L184.624 265.932C183.633 267.508 181.155 267.688 179.219 266.337Z" fill="#EE6723"/>
<path d="M182.732 264.941L146.924 240.168C146.834 240.123 146.789 240.033 146.699 239.988L146.429 240.439C145.663 241.655 145.978 243.321 147.195 244.177L179.219 266.337C181.156 267.689 183.633 267.508 184.624 265.932L184.714 265.797C184.038 265.662 183.363 265.346 182.732 264.941Z" fill="#CECECE"/>
<path d="M90.5327 137.745H83.236C79.5427 137.745 76.5249 134.727 76.5249 131.034V111.17H97.2438V131.034C97.2889 134.727 94.2711 137.745 90.5327 137.745Z" fill="#FF6161"/>
<path d="M78.8668 113.873C74.0474 113.873 70.1738 117.791 70.1738 122.566C70.1738 127.34 74.0924 131.258 78.8668 131.258C83.6411 131.258 87.5597 127.34 87.5597 122.566C87.5597 117.791 83.6411 113.873 78.8668 113.873ZM78.8668 129.367C75.1284 129.367 72.0656 126.304 72.0656 122.566C72.0656 118.827 75.1284 115.764 78.8668 115.764C82.6052 115.764 85.668 118.827 85.668 122.566C85.623 126.349 82.6052 129.367 78.8668 129.367Z" fill="#73EFE8"/>
<path d="M90.5327 137.745H83.236C79.5427 137.745 76.5249 134.727 76.5249 131.034V111.17H97.2438V131.034C97.2889 134.727 94.2711 137.745 90.5327 137.745Z" fill="#97FFE6"/>
<path d="M86.3439 131.439C84.272 131.439 82.6055 129.772 82.6055 127.701V111.17H76.5249V131.034C76.5249 134.727 79.5427 137.745 83.236 137.745H90.5327C94.091 137.745 97.0186 134.952 97.2438 131.439H86.3439Z" fill="#73EFE8"/>
<path d="M172.238 137.745C172.688 136.574 172.913 135.312 172.913 134.006C172.913 128.016 168.094 123.196 162.103 123.196C156.113 123.196 151.293 128.016 151.293 134.006C151.293 135.312 151.519 136.574 151.969 137.745H172.238Z" fill="#FC9F6F"/>
<path opacity="0.77" d="M84.6323 107.567C86.2492 107.567 87.5599 106.256 87.5599 104.639C87.5599 103.022 86.2492 101.711 84.6323 101.711C83.0153 101.711 81.7046 103.022 81.7046 104.639C81.7046 106.256 83.0153 107.567 84.6323 107.567Z" fill="#635D58"/>
<path opacity="0.77" d="M90.0374 98.7834C92.4503 98.7834 94.4064 96.8277 94.4064 94.4144C94.4064 92.0016 92.4503 90.0454 90.0374 90.0454C87.6246 90.0454 85.6685 92.0016 85.6685 94.4144C85.6685 96.8277 87.6246 98.7834 90.0374 98.7834Z" fill="#353434"/>
<path d="M47.2932 70.5883C54.1588 70.5883 59.7245 65.0226 59.7245 58.157C59.7245 51.2913 54.1588 45.7256 47.2932 45.7256C40.4276 45.7256 34.8618 51.2913 34.8618 58.157C34.8618 65.0226 40.4276 70.5883 47.2932 70.5883Z" fill="#E48633"/>
</svg>
